  0
SECTION
  2
HEADER
  9
$ACADVER
  1
AC1014
  9
$HANDSEED
  5
FFFF
  9
$MEASUREMENT
 70
     1
  0
ENDSEC
  0
SECTION
  2
TABLES
  0
TABLE
  2
VPORT
  5
8
330
0
100
AcDbSymbolTable
 70
     4
  0
VPORT
  5
2E
330
8
100
AcDbSymbolTableRecord
100
AcDbViewportTableRecord
  2
*ACTIVE
 70
     0
 10
0.0
 20
0.0
 11
1.0
 21
1.0
 12
210.0
 22
148.5
 13
0.0
 23
0.0
 14
10.0
 24
10.0
 15
10.0
 25
10.0
 16
0.0
 26
0.0
 36
1.0
 17
0.0
 27
0.0
 37
0.0
 40
341.0
 41
1.24
 42
50.0
 43
0.0
 44
0.0
 50
0.0
 51
0.0
 71
     0
 72
   100
 73
     1
 74
     3
 75
     0
 76
     0
 77
     0
 78
     0
  0
ENDTAB
  0
TABLE
  2
LTYPE
  5
5
330
0
100
AcDbSymbolTable
 70
     1
  0
LTYPE
  5
14
330
5
100
AcDbSymbolTableRecord
100
AcDbLinetypeTableRecord
  2
BYBLOCK
 70
     0
  3

 72
    65
 73
     0
 40
0.0
  0
LTYPE
  5
15
330
5
100
AcDbSymbolTableRecord
100
AcDbLinetypeTableRecord
  2
BYLAYER
 70
     0
  3

 72
    65
 73
     0
 40
0.0
  0
LTYPE
  5
16
330
5
100
AcDbSymbolTableRecord
100
AcDbLinetypeTableRecord
  2
CONTINUOUS
 70
     0
  3
Solid line
 72
    65
 73
     0
 40
0.0
  0
ENDTAB
  0
TABLE
  2
LAYER
  5
2
100
AcDbSymbolTable
 70
2
  0
LAYER
  5
50
100
AcDbSymbolTableRecord
100
AcDbLayerTableRecord
  2
0
 70
0
  6
CONTINUOUS
  0
LAYER
  5
51
100
AcDbSymbolTableRecord
100
AcDbLayerTableRecord
  2
Layer_1
 70
0
  6
CONTINUOUS
  0
ENDTAB
  0
TABLE
  2
STYLE
  5
3
330
0
100
AcDbSymbolTable
 70
     1
  0
STYLE
  5
11
330
3
100
AcDbSymbolTableRecord
100
AcDbTextStyleTableRecord
  2
STANDARD
 70
     0
 40
0.0
 41
1.0
 50
0.0
 71
     0
 42
2.5
  3
txt
  4

  0
ENDTAB
  0
TABLE
  2
VIEW
  5
6
330
0
100
AcDbSymbolTable
 70
     0
  0
ENDTAB
  0
TABLE
  2
UCS
  5
7
330
0
100
AcDbSymbolTable
 70
     0
  0
ENDTAB
  0
TABLE
  2
APPID
  5
9
330
0
100
AcDbSymbolTable
 70
     2
  0
APPID
  5
12
330
9
100
AcDbSymbolTableRecord
100
AcDbRegAppTableRecord
  2
ACAD
 70
     0
  0
ENDTAB
  0
TABLE
  2
DIMSTYLE
  5
A
330
0
100
AcDbSymbolTable
 70
     1
  0
DIMSTYLE
105
27
330
A
100
AcDbSymbolTableRecord
100
AcDbDimStyleTableRecord
  2
ISO-25
 70
     0
  3

  4

  5

  6

  7

 40
1.0
 41
2.5
 42
0.625
 43
3.75
 44
1.25
 45
0.0
 46
0.0
 47
0.0
 48
0.0
140
2.5
141
2.5
142
0.0
143
0.03937007874016
144
1.0
145
0.0
146
1.0
147
0.625
 71
     0
 72
     0
 73
     0
 74
     0
 75
     0
 76
     0
 77
     1
 78
     8
170
     0
171
     3
172
     1
173
     0
174
     0
175
     0
176
     0
177
     0
178
     0
270
     2
271
     2
272
     2
273
     2
274
     3
340
11
275
     0
280
     0
281
     0
282
     0
283
     0
284
     8
285
     0
286
     0
287
     3
288
     0
  0
ENDTAB
  0
TABLE
  2
BLOCK_RECORD
  5
1
330
0
100
AcDbSymbolTable
 70
     1
  0
BLOCK_RECORD
  5
1F
330
1
100
AcDbSymbolTableRecord
100
AcDbBlockTableRecord
  2
*MODEL_SPACE
  0
BLOCK_RECORD
  5
1B
330
1
100
AcDbSymbolTableRecord
100
AcDbBlockTableRecord
  2
*PAPER_SPACE
  0
ENDTAB
  0
ENDSEC
  0
SECTION
  2
BLOCKS
  0
BLOCK
  5
20
330
1F
100
AcDbEntity
  8
0
100
AcDbBlockBegin
  2
*MODEL_SPACE
 70
     0
 10
0.0
 20
0.0
 30
0.0
  3
*MODEL_SPACE
  1

  0
ENDBLK
  5
21
330
1F
100
AcDbEntity
  8
0
100
AcDbBlockEnd
  0
BLOCK
  5
1C
330
1B
100
AcDbEntity
 67
     1
  8
0
100
AcDbBlockBegin
  2
*PAPER_SPACE
  1

  0
ENDBLK
  5
1D
330
1B
100
AcDbEntity
 67
     1
  8
0
100
AcDbBlockEnd
  0
ENDSEC
  0
SECTION
  2
ENTITIES
  0
LINE
  5
100
100
AcDbEntity
  8
Layer_1
 62
7
100
AcDbLine
 10
98.030882
 20
218.026892
 30
0.0
 11
98.030882
 21
218.026892
 31
0.0
  0
SPLINE
  5
101
100
AcDbEntity
  8
Layer_1
 62
7
100
AcDbSpline
 70
8
 71
3
 72
8
 73
4
 74
0
 40
0
 40
0
 40
0
 40
0
 40
1
 40
1
 40
1
 40
1
 10
93.795102
 20
213.791111
 30
0.0
 10
93.795102
 20
216.137733
 30
0.0
 10
95.684261
 20
218.026892
 30
0.0
 10
98.030882
 20
218.026892
 30
0.0
  0
LINE
  5
102
100
AcDbEntity
  8
Layer_1
 62
7
100
AcDbLine
 10
93.795102
 20
130.544892
 30
0.0
 11
93.795102
 21
213.791111
 31
0.0
  0
SPLINE
  5
103
100
AcDbEntity
  8
Layer_1
 62
7
100
AcDbSpline
 70
8
 71
3
 72
8
 73
4
 74
0
 40
0
 40
0
 40
0
 40
0
 40
1
 40
1
 40
1
 40
1
 10
98.030882
 20
126.309112
 30
0.0
 10
95.684261
 20
126.309112
 30
0.0
 10
93.795102
 20
128.198268
 30
0.0
 10
93.795102
 20
130.544892
 30
0.0
  0
LINE
  5
104
100
AcDbEntity
  8
Layer_1
 62
7
100
AcDbLine
 10
232.481100
 20
126.309100
 30
0.0
 11
98.234878
 21
126.309100
 31
0.0
  0
SPLINE
  5
105
100
AcDbEntity
  8
Layer_1
 62
7
100
AcDbSpline
 70
8
 71
3
 72
8
 73
4
 74
0
 40
0
 40
0
 40
0
 40
0
 40
1
 40
1
 40
1
 40
1
 10
236.512870
 20
130.544892
 30
0.0
 10
236.512870
 20
128.198268
 30
0.0
 10
234.623731
 20
126.309112
 30
0.0
 10
232.277110
 20
126.309112
 30
0.0
  0
LINE
  5
106
100
AcDbEntity
  8
Layer_1
 62
7
100
AcDbLine
 10
236.512870
 20
213.791111
 30
0.0
 11
236.512870
 21
130.544892
 31
0.0
  0
SPLINE
  5
107
100
AcDbEntity
  8
Layer_1
 62
7
100
AcDbSpline
 70
8
 71
3
 72
8
 73
4
 74
0
 40
0
 40
0
 40
0
 40
0
 40
1
 40
1
 40
1
 40
1
 10
232.277110
 20
218.026892
 30
0.0
 10
234.623731
 20
218.026892
 30
0.0
 10
236.512870
 20
216.137733
 30
0.0
 10
236.512870
 20
213.791111
 30
0.0
  0
LINE
  5
108
100
AcDbEntity
  8
Layer_1
 62
7
100
AcDbLine
 10
98.030882
 20
218.026892
 30
0.0
 11
232.277110
 21
218.026892
 31
0.0
  0
LINE
  5
109
100
AcDbEntity
  8
Layer_1
 62
1
100
AcDbLine
 10
100.630660
 20
212.863122
 30
0.0
 11
100.630660
 21
212.863122
 31
0.0
  0
SPLINE
  5
10a
100
AcDbEntity
  8
Layer_1
 62
1
100
AcDbSpline
 70
8
 71
3
 72
8
 73
4
 74
0
 40
0
 40
0
 40
0
 40
0
 40
1
 40
1
 40
1
 40
1
 10
99.021767
 20
214.472012
 30
0.0
 10
99.910316
 20
214.472012
 30
0.0
 10
100.630660
 20
213.751688
 30
0.0
 10
100.630660
 20
212.863122
 30
0.0
  0
SPLINE
  5
10b
100
AcDbEntity
  8
Layer_1
 62
1
100
AcDbSpline
 70
8
 71
3
 72
8
 73
4
 74
0
 40
0
 40
0
 40
0
 40
0
 40
1
 40
1
 40
1
 40
1
 10
97.412875
 20
212.863122
 30
0.0
 10
97.412875
 20
213.751688
 30
0.0
 10
98.133191
 20
214.472012
 30
0.0
 10
99.021767
 20
214.472012
 30
0.0
  0
SPLINE
  5
10c
100
AcDbEntity
  8
Layer_1
 62
1
100
AcDbSpline
 70
8
 71
3
 72
8
 73
4
 74
0
 40
0
 40
0
 40
0
 40
0
 40
1
 40
1
 40
1
 40
1
 10
99.021767
 20
211.254233
 30
0.0
 10
98.133191
 20
211.254233
 30
0.0
 10
97.412875
 20
211.974557
 30
0.0
 10
97.412875
 20
212.863122
 30
0.0
  0
SPLINE
  5
10d
100
AcDbEntity
  8
Layer_1
 62
1
100
AcDbSpline
 70
8
 71
3
 72
8
 73
4
 74
0
 40
0
 40
0
 40
0
 40
0
 40
1
 40
1
 40
1
 40
1
 10
100.630660
 20
212.863122
 30
0.0
 10
100.630660
 20
211.974557
 30
0.0
 10
99.910316
 20
211.254233
 30
0.0
 10
99.021767
 20
211.254233
 30
0.0
  0
LINE
  5
10e
100
AcDbEntity
  8
Layer_1
 62
1
100
AcDbLine
 10
101.271756
 20
131.917990
 30
0.0
 11
101.271756
 21
131.917990
 31
0.0
  0
SPLINE
  5
10f
100
AcDbEntity
  8
Layer_1
 62
1
100
AcDbSpline
 70
8
 71
3
 72
8
 73
4
 74
0
 40
0
 40
0
 40
0
 40
0
 40
1
 40
1
 40
1
 40
1
 10
99.662863
 20
133.526886
 30
0.0
 10
100.551440
 20
133.526886
 30
0.0
 10
101.271756
 20
132.806559
 30
0.0
 10
101.271756
 20
131.917990
 30
0.0
  0
SPLINE
  5
110
100
AcDbEntity
  8
Layer_1
 62
1
100
AcDbSpline
 70
8
 71
3
 72
8
 73
4
 74
0
 40
0
 40
0
 40
0
 40
0
 40
1
 40
1
 40
1
 40
1
 10
98.053971
 20
131.917990
 30
0.0
 10
98.053971
 20
132.806559
 30
0.0
 10
98.774315
 20
133.526886
 30
0.0
 10
99.662863
 20
133.526886
 30
0.0
  0
SPLINE
  5
111
100
AcDbEntity
  8
Layer_1
 62
1
100
AcDbSpline
 70
8
 71
3
 72
8
 73
4
 74
0
 40
0
 40
0
 40
0
 40
0
 40
1
 40
1
 40
1
 40
1
 10
99.662863
 20
130.309101
 30
0.0
 10
98.774315
 20
130.309101
 30
0.0
 10
98.053971
 20
131.029428
 30
0.0
 10
98.053971
 20
131.917990
 30
0.0
  0
SPLINE
  5
112
100
AcDbEntity
  8
Layer_1
 62
1
100
AcDbSpline
 70
8
 71
3
 72
8
 73
4
 74
0
 40
0
 40
0
 40
0
 40
0
 40
1
 40
1
 40
1
 40
1
 10
101.271756
 20
131.917990
 30
0.0
 10
101.271756
 20
131.029428
 30
0.0
 10
100.551440
 20
130.309101
 30
0.0
 10
99.662863
 20
130.309101
 30
0.0
  0
LINE
  5
113
100
AcDbEntity
  8
Layer_1
 62
1
100
AcDbLine
 10
232.905763
 20
131.917990
 30
0.0
 11
232.905763
 21
131.917990
 31
0.0
  0
SPLINE
  5
114
100
AcDbEntity
  8
Layer_1
 62
1
100
AcDbSpline
 70
8
 71
3
 72
8
 73
4
 74
0
 40
0
 40
0
 40
0
 40
0
 40
1
 40
1
 40
1
 40
1
 10
231.296870
 20
133.526883
 30
0.0
 10
232.185447
 20
133.526883
 30
0.0
 10
232.905763
 20
132.806561
 30
0.0
 10
232.905763
 20
131.917990
 30
0.0
  0
SPLINE
  5
115
100
AcDbEntity
  8
Layer_1
 62
1
100
AcDbSpline
 70
8
 71
3
 72
8
 73
4
 74
0
 40
0
 40
0
 40
0
 40
0
 40
1
 40
1
 40
1
 40
1
 10
229.687978
 20
131.917990
 30
0.0
 10
229.687978
 20
132.806561
 30
0.0
 10
230.408322
 20
133.526883
 30
0.0
 10
231.296870
 20
133.526883
 30
0.0
  0
SPLINE
  5
116
100
AcDbEntity
  8
Layer_1
 62
1
100
AcDbSpline
 70
8
 71
3
 72
8
 73
4
 74
0
 40
0
 40
0
 40
0
 40
0
 40
1
 40
1
 40
1
 40
1
 10
231.296870
 20
130.309101
 30
0.0
 10
230.408322
 20
130.309101
 30
0.0
 10
229.687978
 20
131.029431
 30
0.0
 10
229.687978
 20
131.917990
 30
0.0
  0
SPLINE
  5
117
100
AcDbEntity
  8
Layer_1
 62
1
100
AcDbSpline
 70
8
 71
3
 72
8
 73
4
 74
0
 40
0
 40
0
 40
0
 40
0
 40
1
 40
1
 40
1
 40
1
 10
232.905763
 20
131.917990
 30
0.0
 10
232.905763
 20
131.029431
 30
0.0
 10
232.185447
 20
130.309101
 30
0.0
 10
231.296870
 20
130.309101
 30
0.0
  0
LINE
  5
118
100
AcDbEntity
  8
Layer_1
 62
1
100
AcDbLine
 10
233.012892
 20
212.863122
 30
0.0
 11
233.012892
 21
212.863122
 31
0.0
  0
SPLINE
  5
119
100
AcDbEntity
  8
Layer_1
 62
1
100
AcDbSpline
 70
8
 71
3
 72
8
 73
4
 74
0
 40
0
 40
0
 40
0
 40
0
 40
1
 40
1
 40
1
 40
1
 10
231.403999
 20
214.472012
 30
0.0
 10
232.292576
 20
214.472012
 30
0.0
 10
233.012892
 20
213.751688
 30
0.0
 10
233.012892
 20
212.863122
 30
0.0
  0
SPLINE
  5
11a
100
AcDbEntity
  8
Layer_1
 62
1
100
AcDbSpline
 70
8
 71
3
 72
8
 73
4
 74
0
 40
0
 40
0
 40
0
 40
0
 40
1
 40
1
 40
1
 40
1
 10
229.795107
 20
212.863122
 30
0.0
 10
229.795107
 20
213.751688
 30
0.0
 10
230.515451
 20
214.472012
 30
0.0
 10
231.403999
 20
214.472012
 30
0.0
  0
SPLINE
  5
11b
100
AcDbEntity
  8
Layer_1
 62
1
100
AcDbSpline
 70
8
 71
3
 72
8
 73
4
 74
0
 40
0
 40
0
 40
0
 40
0
 40
1
 40
1
 40
1
 40
1
 10
231.403999
 20
211.254233
 30
0.0
 10
230.515451
 20
211.254233
 30
0.0
 10
229.795107
 20
211.974557
 30
0.0
 10
229.795107
 20
212.863122
 30
0.0
  0
SPLINE
  5
11c
100
AcDbEntity
  8
Layer_1
 62
1
100
AcDbSpline
 70
8
 71
3
 72
8
 73
4
 74
0
 40
0
 40
0
 40
0
 40
0
 40
1
 40
1
 40
1
 40
1
 10
233.012892
 20
212.863122
 30
0.0
 10
233.012892
 20
211.974557
 30
0.0
 10
232.292576
 20
211.254233
 30
0.0
 10
231.403999
 20
211.254233
 30
0.0
  0
LINE
  5
11d
100
AcDbEntity
  8
Layer_1
 62
7
100
AcDbLine
 10
243.622793
 20
218.298756
 30
0.0
 11
243.622793
 21
218.298756
 31
0.0
  0
SPLINE
  5
11e
100
AcDbEntity
  8
Layer_1
 62
7
100
AcDbSpline
 70
8
 71
3
 72
8
 73
4
 74
0
 40
0
 40
0
 40
0
 40
0
 40
1
 40
1
 40
1
 40
1
 10
239.387013
 20
214.062976
 30
0.0
 10
239.387013
 20
216.409597
 30
0.0
 10
241.276172
 20
218.298756
 30
0.0
 10
243.622793
 20
218.298756
 30
0.0
  0
LINE
  5
11f
100
AcDbEntity
  8
Layer_1
 62
7
100
AcDbLine
 10
239.387013
 20
130.816756
 30
0.0
 11
239.387013
 21
214.062976
 31
0.0
  0
SPLINE
  5
120
100
AcDbEntity
  8
Layer_1
 62
7
100
AcDbSpline
 70
8
 71
3
 72
8
 73
4
 74
0
 40
0
 40
0
 40
0
 40
0
 40
1
 40
1
 40
1
 40
1
 10
243.622793
 20
126.580976
 30
0.0
 10
241.276172
 20
126.580976
 30
0.0
 10
239.387013
 20
128.470132
 30
0.0
 10
239.387013
 20
130.816756
 30
0.0
  0
LINE
  5
121
100
AcDbEntity
  8
Layer_1
 62
7
100
AcDbLine
 10
378.073017
 20
126.580965
 30
0.0
 11
243.826789
 21
126.580965
 31
0.0
  0
SPLINE
  5
122
100
AcDbEntity
  8
Layer_1
 62
7
100
AcDbSpline
 70
8
 71
3
 72
8
 73
4
 74
0
 40
0
 40
0
 40
0
 40
0
 40
1
 40
1
 40
1
 40
1
 10
382.104787
 20
130.816756
 30
0.0
 10
382.104787
 20
128.470132
 30
0.0
 10
380.215648
 20
126.580976
 30
0.0
 10
377.869027
 20
126.580976
 30
0.0
  0
LINE
  5
123
100
AcDbEntity
  8
Layer_1
 62
7
100
AcDbLine
 10
382.104787
 20
214.062976
 30
0.0
 11
382.104787
 21
130.816756
 31
0.0
  0
SPLINE
  5
124
100
AcDbEntity
  8
Layer_1
 62
7
100
AcDbSpline
 70
8
 71
3
 72
8
 73
4
 74
0
 40
0
 40
0
 40
0
 40
0
 40
1
 40
1
 40
1
 40
1
 10
377.869027
 20
218.298756
 30
0.0
 10
380.215648
 20
218.298756
 30
0.0
 10
382.104787
 20
216.409597
 30
0.0
 10
382.104787
 20
214.062976
 30
0.0
  0
LINE
  5
125
100
AcDbEntity
  8
Layer_1
 62
7
100
AcDbLine
 10
243.622793
 20
218.298756
 30
0.0
 11
377.869027
 21
218.298756
 31
0.0
  0
LINE
  5
126
100
AcDbEntity
  8
Layer_1
 62
1
100
AcDbLine
 10
246.222574
 20
213.134987
 30
0.0
 11
246.222574
 21
213.134987
 31
0.0
  0
SPLINE
  5
127
100
AcDbEntity
  8
Layer_1
 62
1
100
AcDbSpline
 70
8
 71
3
 72
8
 73
4
 74
0
 40
0
 40
0
 40
0
 40
0
 40
1
 40
1
 40
1
 40
1
 10
244.613681
 20
214.743877
 30
0.0
 10
245.502230
 20
214.743877
 30
0.0
 10
246.222574
 20
214.023552
 30
0.0
 10
246.222574
 20
213.134987
 30
0.0
  0
SPLINE
  5
128
100
AcDbEntity
  8
Layer_1
 62
1
100
AcDbSpline
 70
8
 71
3
 72
8
 73
4
 74
0
 40
0
 40
0
 40
0
 40
0
 40
1
 40
1
 40
1
 40
1
 10
243.004789
 20
213.134987
 30
0.0
 10
243.004789
 20
214.023552
 30
0.0
 10
243.725105
 20
214.743877
 30
0.0
 10
244.613681
 20
214.743877
 30
0.0
  0
SPLINE
  5
129
100
AcDbEntity
  8
Layer_1
 62
1
100
AcDbSpline
 70
8
 71
3
 72
8
 73
4
 74
0
 40
0
 40
0
 40
0
 40
0
 40
1
 40
1
 40
1
 40
1
 10
244.613681
 20
211.526097
 30
0.0
 10
243.725105
 20
211.526097
 30
0.0
 10
243.004789
 20
212.246422
 30
0.0
 10
243.004789
 20
213.134987
 30
0.0
  0
SPLINE
  5
12a
100
AcDbEntity
  8
Layer_1
 62
1
100
AcDbSpline
 70
8
 71
3
 72
8
 73
4
 74
0
 40
0
 40
0
 40
0
 40
0
 40
1
 40
1
 40
1
 40
1
 10
246.222574
 20
213.134987
 30
0.0
 10
246.222574
 20
212.246422
 30
0.0
 10
245.502230
 20
211.526097
 30
0.0
 10
244.613681
 20
211.526097
 30
0.0
  0
LINE
  5
12b
100
AcDbEntity
  8
Layer_1
 62
1
100
AcDbLine
 10
246.863670
 20
132.189855
 30
0.0
 11
246.863670
 21
132.189855
 31
0.0
  0
SPLINE
  5
12c
100
AcDbEntity
  8
Layer_1
 62
1
100
AcDbSpline
 70
8
 71
3
 72
8
 73
4
 74
0
 40
0
 40
0
 40
0
 40
0
 40
1
 40
1
 40
1
 40
1
 10
245.254777
 20
133.798750
 30
0.0
 10
246.143354
 20
133.798750
 30
0.0
 10
246.863670
 20
133.078423
 30
0.0
 10
246.863670
 20
132.189855
 30
0.0
  0
SPLINE
  5
12d
100
AcDbEntity
  8
Layer_1
 62
1
100
AcDbSpline
 70
8
 71
3
 72
8
 73
4
 74
0
 40
0
 40
0
 40
0
 40
0
 40
1
 40
1
 40
1
 40
1
 10
243.645885
 20
132.189855
 30
0.0
 10
243.645885
 20
133.078423
 30
0.0
 10
244.366229
 20
133.798750
 30
0.0
 10
245.254777
 20
133.798750
 30
0.0
  0
SPLINE
  5
12e
100
AcDbEntity
  8
Layer_1
 62
1
100
AcDbSpline
 70
8
 71
3
 72
8
 73
4
 74
0
 40
0
 40
0
 40
0
 40
0
 40
1
 40
1
 40
1
 40
1
 10
245.254777
 20
130.580965
 30
0.0
 10
244.366229
 20
130.580965
 30
0.0
 10
243.645885
 20
131.301292
 30
0.0
 10
243.645885
 20
132.189855
 30
0.0
  0
SPLINE
  5
12f
100
AcDbEntity
  8
Layer_1
 62
1
100
AcDbSpline
 70
8
 71
3
 72
8
 73
4
 74
0
 40
0
 40
0
 40
0
 40
0
 40
1
 40
1
 40
1
 40
1
 10
246.863670
 20
132.189855
 30
0.0
 10
246.863670
 20
131.301292
 30
0.0
 10
246.143354
 20
130.580965
 30
0.0
 10
245.254777
 20
130.580965
 30
0.0
  0
LINE
  5
130
100
AcDbEntity
  8
Layer_1
 62
1
100
AcDbLine
 10
378.497677
 20
132.189855
 30
0.0
 11
378.497677
 21
132.189855
 31
0.0
  0
SPLINE
  5
131
100
AcDbEntity
  8
Layer_1
 62
1
100
AcDbSpline
 70
8
 71
3
 72
8
 73
4
 74
0
 40
0
 40
0
 40
0
 40
0
 40
1
 40
1
 40
1
 40
1
 10
376.888784
 20
133.798747
 30
0.0
 10
377.777361
 20
133.798747
 30
0.0
 10
378.497677
 20
133.078426
 30
0.0
 10
378.497677
 20
132.189855
 30
0.0
  0
SPLINE
  5
132
100
AcDbEntity
  8
Layer_1
 62
1
100
AcDbSpline
 70
8
 71
3
 72
8
 73
4
 74
0
 40
0
 40
0
 40
0
 40
0
 40
1
 40
1
 40
1
 40
1
 10
375.279892
 20
132.189855
 30
0.0
 10
375.279892
 20
133.078426
 30
0.0
 10
376.000236
 20
133.798747
 30
0.0
 10
376.888784
 20
133.798747
 30
0.0
  0
SPLINE
  5
133
100
AcDbEntity
  8
Layer_1
 62
1
100
AcDbSpline
 70
8
 71
3
 72
8
 73
4
 74
0
 40
0
 40
0
 40
0
 40
0
 40
1
 40
1
 40
1
 40
1
 10
376.888784
 20
130.580965
 30
0.0
 10
376.000236
 20
130.580965
 30
0.0
 10
375.279892
 20
131.301295
 30
0.0
 10
375.279892
 20
132.189855
 30
0.0
  0
SPLINE
  5
134
100
AcDbEntity
  8
Layer_1
 62
1
100
AcDbSpline
 70
8
 71
3
 72
8
 73
4
 74
0
 40
0
 40
0
 40
0
 40
0
 40
1
 40
1
 40
1
 40
1
 10
378.497677
 20
132.189855
 30
0.0
 10
378.497677
 20
131.301295
 30
0.0
 10
377.777361
 20
130.580965
 30
0.0
 10
376.888784
 20
130.580965
 30
0.0
  0
LINE
  5
135
100
AcDbEntity
  8
Layer_1
 62
1
100
AcDbLine
 10
378.604808
 20
213.134987
 30
0.0
 11
378.604808
 21
213.134987
 31
0.0
  0
SPLINE
  5
136
100
AcDbEntity
  8
Layer_1
 62
1
100
AcDbSpline
 70
8
 71
3
 72
8
 73
4
 74
0
 40
0
 40
0
 40
0
 40
0
 40
1
 40
1
 40
1
 40
1
 10
376.995916
 20
214.743877
 30
0.0
 10
377.884492
 20
214.743877
 30
0.0
 10
378.604808
 20
214.023552
 30
0.0
 10
378.604808
 20
213.134987
 30
0.0
  0
SPLINE
  5
137
100
AcDbEntity
  8
Layer_1
 62
1
100
AcDbSpline
 70
8
 71
3
 72
8
 73
4
 74
0
 40
0
 40
0
 40
0
 40
0
 40
1
 40
1
 40
1
 40
1
 10
375.387023
 20
213.134987
 30
0.0
 10
375.387023
 20
214.023552
 30
0.0
 10
376.107367
 20
214.743877
 30
0.0
 10
376.995916
 20
214.743877
 30
0.0
  0
SPLINE
  5
138
100
AcDbEntity
  8
Layer_1
 62
1
100
AcDbSpline
 70
8
 71
3
 72
8
 73
4
 74
0
 40
0
 40
0
 40
0
 40
0
 40
1
 40
1
 40
1
 40
1
 10
376.995916
 20
211.526097
 30
0.0
 10
376.107367
 20
211.526097
 30
0.0
 10
375.387023
 20
212.246422
 30
0.0
 10
375.387023
 20
213.134987
 30
0.0
  0
SPLINE
  5
139
100
AcDbEntity
  8
Layer_1
 62
1
100
AcDbSpline
 70
8
 71
3
 72
8
 73
4
 74
0
 40
0
 40
0
 40
0
 40
0
 40
1
 40
1
 40
1
 40
1
 10
378.604808
 20
213.134987
 30
0.0
 10
378.604808
 20
212.246422
 30
0.0
 10
377.884492
 20
211.526097
 30
0.0
 10
376.995916
 20
211.526097
 30
0.0
  0
ENDSEC
  0
SECTION
  2
OBJECTS
  0
DICTIONARY
  5
C
330
0
100
AcDbDictionary
  3
ACAD_GROUP
350
D
  3
ACAD_MLINESTYLE
350
17
  0
DICTIONARY
  5
D
330
C
100
AcDbDictionary
  0
DICTIONARY
  5
1A
330
C
100
AcDbDictionary
  0
DICTIONARY
  5
17
330
C
100
AcDbDictionary
  3
STANDARD
350
18
  0
DICTIONARY
  5
19
330
C
100
AcDbDictionary
  0
ENDSEC
  0
EOF
