  0
SECTION
  2
HEADER
  9
$ACADVER
  1
AC1014
  9
$HANDSEED
  5
FFFF
  9
$MEASUREMENT
 70
     1
  0
ENDSEC
  0
SECTION
  2
TABLES
  0
TABLE
  2
VPORT
  5
8
330
0
100
AcDbSymbolTable
 70
     4
  0
VPORT
  5
2E
330
8
100
AcDbSymbolTableRecord
100
AcDbViewportTableRecord
  2
*ACTIVE
 70
     0
 10
0.0
 20
0.0
 11
1.0
 21
1.0
 12
210.0
 22
148.5
 13
0.0
 23
0.0
 14
10.0
 24
10.0
 15
10.0
 25
10.0
 16
0.0
 26
0.0
 36
1.0
 17
0.0
 27
0.0
 37
0.0
 40
341.0
 41
1.24
 42
50.0
 43
0.0
 44
0.0
 50
0.0
 51
0.0
 71
     0
 72
   100
 73
     1
 74
     3
 75
     0
 76
     0
 77
     0
 78
     0
  0
ENDTAB
  0
TABLE
  2
LTYPE
  5
5
330
0
100
AcDbSymbolTable
 70
     1
  0
LTYPE
  5
14
330
5
100
AcDbSymbolTableRecord
100
AcDbLinetypeTableRecord
  2
BYBLOCK
 70
     0
  3

 72
    65
 73
     0
 40
0.0
  0
LTYPE
  5
15
330
5
100
AcDbSymbolTableRecord
100
AcDbLinetypeTableRecord
  2
BYLAYER
 70
     0
  3

 72
    65
 73
     0
 40
0.0
  0
LTYPE
  5
16
330
5
100
AcDbSymbolTableRecord
100
AcDbLinetypeTableRecord
  2
CONTINUOUS
 70
     0
  3
Solid line
 72
    65
 73
     0
 40
0.0
  0
ENDTAB
  0
TABLE
  2
LAYER
  5
2
100
AcDbSymbolTable
 70
2
  0
LAYER
  5
50
100
AcDbSymbolTableRecord
100
AcDbLayerTableRecord
  2
0
 70
0
  6
CONTINUOUS
  0
LAYER
  5
51
100
AcDbSymbolTableRecord
100
AcDbLayerTableRecord
  2
Layer_1
 70
0
  6
CONTINUOUS
  0
ENDTAB
  0
TABLE
  2
STYLE
  5
3
330
0
100
AcDbSymbolTable
 70
     1
  0
STYLE
  5
11
330
3
100
AcDbSymbolTableRecord
100
AcDbTextStyleTableRecord
  2
STANDARD
 70
     0
 40
0.0
 41
1.0
 50
0.0
 71
     0
 42
2.5
  3
txt
  4

  0
ENDTAB
  0
TABLE
  2
VIEW
  5
6
330
0
100
AcDbSymbolTable
 70
     0
  0
ENDTAB
  0
TABLE
  2
UCS
  5
7
330
0
100
AcDbSymbolTable
 70
     0
  0
ENDTAB
  0
TABLE
  2
APPID
  5
9
330
0
100
AcDbSymbolTable
 70
     2
  0
APPID
  5
12
330
9
100
AcDbSymbolTableRecord
100
AcDbRegAppTableRecord
  2
ACAD
 70
     0
  0
ENDTAB
  0
TABLE
  2
DIMSTYLE
  5
A
330
0
100
AcDbSymbolTable
 70
     1
  0
DIMSTYLE
105
27
330
A
100
AcDbSymbolTableRecord
100
AcDbDimStyleTableRecord
  2
ISO-25
 70
     0
  3

  4

  5

  6

  7

 40
1.0
 41
2.5
 42
0.625
 43
3.75
 44
1.25
 45
0.0
 46
0.0
 47
0.0
 48
0.0
140
2.5
141
2.5
142
0.0
143
0.03937007874016
144
1.0
145
0.0
146
1.0
147
0.625
 71
     0
 72
     0
 73
     0
 74
     0
 75
     0
 76
     0
 77
     1
 78
     8
170
     0
171
     3
172
     1
173
     0
174
     0
175
     0
176
     0
177
     0
178
     0
270
     2
271
     2
272
     2
273
     2
274
     3
340
11
275
     0
280
     0
281
     0
282
     0
283
     0
284
     8
285
     0
286
     0
287
     3
288
     0
  0
ENDTAB
  0
TABLE
  2
BLOCK_RECORD
  5
1
330
0
100
AcDbSymbolTable
 70
     1
  0
BLOCK_RECORD
  5
1F
330
1
100
AcDbSymbolTableRecord
100
AcDbBlockTableRecord
  2
*MODEL_SPACE
  0
BLOCK_RECORD
  5
1B
330
1
100
AcDbSymbolTableRecord
100
AcDbBlockTableRecord
  2
*PAPER_SPACE
  0
ENDTAB
  0
ENDSEC
  0
SECTION
  2
BLOCKS
  0
BLOCK
  5
20
330
1F
100
AcDbEntity
  8
0
100
AcDbBlockBegin
  2
*MODEL_SPACE
 70
     0
 10
0.0
 20
0.0
 30
0.0
  3
*MODEL_SPACE
  1

  0
ENDBLK
  5
21
330
1F
100
AcDbEntity
  8
0
100
AcDbBlockEnd
  0
BLOCK
  5
1C
330
1B
100
AcDbEntity
 67
     1
  8
0
100
AcDbBlockBegin
  2
*PAPER_SPACE
  1

  0
ENDBLK
  5
1D
330
1B
100
AcDbEntity
 67
     1
  8
0
100
AcDbBlockEnd
  0
ENDSEC
  0
SECTION
  2
ENTITIES
  0
LINE
  5
100
100
AcDbEntity
  8
Layer_1
 62
7
100
AcDbLine
 10
314.218884
 20
227.208913
 30
0.0
 11
448.465109
 21
227.208913
 31
0.0
  0
SPLINE
  5
101
100
AcDbEntity
  8
Layer_1
 62
7
100
AcDbSpline
 70
8
 71
3
 72
8
 73
4
 74
0
 40
0
 40
0
 40
0
 40
0
 40
1
 40
1
 40
1
 40
1
 10
448.465109
 20
227.208913
 30
0.0
 10
450.811731
 20
227.208913
 30
0.0
 10
452.700898
 20
225.319754
 30
0.0
 10
452.700898
 20
222.973132
 30
0.0
  0
LINE
  5
102
100
AcDbEntity
  8
Layer_1
 62
7
100
AcDbLine
 10
452.700898
 20
222.973132
 30
0.0
 11
452.700898
 21
139.726913
 31
0.0
  0
SPLINE
  5
103
100
AcDbEntity
  8
Layer_1
 62
7
100
AcDbSpline
 70
8
 71
3
 72
8
 73
4
 74
0
 40
0
 40
0
 40
0
 40
0
 40
1
 40
1
 40
1
 40
1
 10
452.700898
 20
139.726913
 30
0.0
 10
452.700898
 20
137.380289
 30
0.0
 10
450.811731
 20
135.491133
 30
0.0
 10
448.465109
 20
135.491133
 30
0.0
  0
LINE
  5
104
100
AcDbEntity
  8
Layer_1
 62
7
100
AcDbLine
 10
448.465109
 20
135.491133
 30
0.0
 11
314.218884
 21
135.491133
 31
0.0
  0
SPLINE
  5
105
100
AcDbEntity
  8
Layer_1
 62
7
100
AcDbSpline
 70
8
 71
3
 72
8
 73
4
 74
0
 40
0
 40
0
 40
0
 40
0
 40
1
 40
1
 40
1
 40
1
 10
314.218884
 20
135.491133
 30
0.0
 10
311.872263
 20
135.491133
 30
0.0
 10
309.983124
 20
137.380289
 30
0.0
 10
309.983124
 20
139.726913
 30
0.0
  0
LINE
  5
106
100
AcDbEntity
  8
Layer_1
 62
7
100
AcDbLine
 10
309.983124
 20
139.726913
 30
0.0
 11
309.983124
 21
222.973132
 31
0.0
  0
SPLINE
  5
107
100
AcDbEntity
  8
Layer_1
 62
7
100
AcDbSpline
 70
8
 71
3
 72
8
 73
4
 74
0
 40
0
 40
0
 40
0
 40
0
 40
1
 40
1
 40
1
 40
1
 10
309.983124
 20
222.973132
 30
0.0
 10
309.983124
 20
225.319754
 30
0.0
 10
311.872263
 20
227.208913
 30
0.0
 10
314.218884
 20
227.208913
 30
0.0
  0
LINE
  5
108
100
AcDbEntity
  8
Layer_1
 62
7
100
AcDbLine
 10
314.218884
 20
227.208913
 30
0.0
 11
314.218884
 21
227.208913
 31
0.0
  0
SPLINE
  5
109
100
AcDbEntity
  8
Layer_1
 62
1
100
AcDbSpline
 70
8
 71
3
 72
8
 73
4
 74
0
 40
0
 40
0
 40
0
 40
0
 40
1
 40
1
 40
1
 40
1
 10
316.818659
 20
222.045141
 30
0.0
 10
316.818659
 20
221.156575
 30
0.0
 10
316.098343
 20
220.436251
 30
0.0
 10
315.209767
 20
220.436251
 30
0.0
  0
SPLINE
  5
10a
100
AcDbEntity
  8
Layer_1
 62
1
100
AcDbSpline
 70
8
 71
3
 72
8
 73
4
 74
0
 40
0
 40
0
 40
0
 40
0
 40
1
 40
1
 40
1
 40
1
 10
315.209767
 20
220.436251
 30
0.0
 10
314.321218
 20
220.436251
 30
0.0
 10
313.600902
 20
221.156575
 30
0.0
 10
313.600902
 20
222.045141
 30
0.0
  0
SPLINE
  5
10b
100
AcDbEntity
  8
Layer_1
 62
1
100
AcDbSpline
 70
8
 71
3
 72
8
 73
4
 74
0
 40
0
 40
0
 40
0
 40
0
 40
1
 40
1
 40
1
 40
1
 10
313.600902
 20
222.045141
 30
0.0
 10
313.600902
 20
222.933709
 30
0.0
 10
314.321218
 20
223.654033
 30
0.0
 10
315.209767
 20
223.654033
 30
0.0
  0
SPLINE
  5
10c
100
AcDbEntity
  8
Layer_1
 62
1
100
AcDbSpline
 70
8
 71
3
 72
8
 73
4
 74
0
 40
0
 40
0
 40
0
 40
0
 40
1
 40
1
 40
1
 40
1
 10
315.209767
 20
223.654033
 30
0.0
 10
316.098343
 20
223.654033
 30
0.0
 10
316.818659
 20
222.933709
 30
0.0
 10
316.818659
 20
222.045141
 30
0.0
  0
LINE
  5
10d
100
AcDbEntity
  8
Layer_1
 62
1
100
AcDbLine
 10
316.818659
 20
222.045141
 30
0.0
 11
316.818659
 21
222.045141
 31
0.0
  0
SPLINE
  5
10e
100
AcDbEntity
  8
Layer_1
 62
1
100
AcDbSpline
 70
8
 71
3
 72
8
 73
4
 74
0
 40
0
 40
0
 40
0
 40
0
 40
1
 40
1
 40
1
 40
1
 10
317.459783
 20
141.100011
 30
0.0
 10
317.459783
 20
140.211449
 30
0.0
 10
316.739439
 20
139.491122
 30
0.0
 10
315.850891
 20
139.491122
 30
0.0
  0
SPLINE
  5
10f
100
AcDbEntity
  8
Layer_1
 62
1
100
AcDbSpline
 70
8
 71
3
 72
8
 73
4
 74
0
 40
0
 40
0
 40
0
 40
0
 40
1
 40
1
 40
1
 40
1
 10
315.850891
 20
139.491122
 30
0.0
 10
314.962314
 20
139.491122
 30
0.0
 10
314.241998
 20
140.211449
 30
0.0
 10
314.241998
 20
141.100011
 30
0.0
  0
SPLINE
  5
110
100
AcDbEntity
  8
Layer_1
 62
1
100
AcDbSpline
 70
8
 71
3
 72
8
 73
4
 74
0
 40
0
 40
0
 40
0
 40
0
 40
1
 40
1
 40
1
 40
1
 10
314.241998
 20
141.100011
 30
0.0
 10
314.241998
 20
141.988580
 30
0.0
 10
314.962314
 20
142.708907
 30
0.0
 10
315.850891
 20
142.708907
 30
0.0
  0
SPLINE
  5
111
100
AcDbEntity
  8
Layer_1
 62
1
100
AcDbSpline
 70
8
 71
3
 72
8
 73
4
 74
0
 40
0
 40
0
 40
0
 40
0
 40
1
 40
1
 40
1
 40
1
 10
315.850891
 20
142.708907
 30
0.0
 10
316.739439
 20
142.708907
 30
0.0
 10
317.459783
 20
141.988580
 30
0.0
 10
317.459783
 20
141.100011
 30
0.0
  0
LINE
  5
112
100
AcDbEntity
  8
Layer_1
 62
1
100
AcDbLine
 10
317.459783
 20
141.100011
 30
0.0
 11
317.459783
 21
141.100011
 31
0.0
  0
SPLINE
  5
113
100
AcDbEntity
  8
Layer_1
 62
1
100
AcDbSpline
 70
8
 71
3
 72
8
 73
4
 74
0
 40
0
 40
0
 40
0
 40
0
 40
1
 40
1
 40
1
 40
1
 10
449.093788
 20
141.100008
 30
0.0
 10
449.093788
 20
140.211449
 30
0.0
 10
448.373444
 20
139.491122
 30
0.0
 10
447.484895
 20
139.491122
 30
0.0
  0
SPLINE
  5
114
100
AcDbEntity
  8
Layer_1
 62
1
100
AcDbSpline
 70
8
 71
3
 72
8
 73
4
 74
0
 40
0
 40
0
 40
0
 40
0
 40
1
 40
1
 40
1
 40
1
 10
447.484895
 20
139.491122
 30
0.0
 10
446.596318
 20
139.491122
 30
0.0
 10
445.876003
 20
140.211449
 30
0.0
 10
445.876003
 20
141.100008
 30
0.0
  0
SPLINE
  5
115
100
AcDbEntity
  8
Layer_1
 62
1
100
AcDbSpline
 70
8
 71
3
 72
8
 73
4
 74
0
 40
0
 40
0
 40
0
 40
0
 40
1
 40
1
 40
1
 40
1
 10
445.876003
 20
141.100008
 30
0.0
 10
445.876003
 20
141.988580
 30
0.0
 10
446.596318
 20
142.708904
 30
0.0
 10
447.484895
 20
142.708904
 30
0.0
  0
SPLINE
  5
116
100
AcDbEntity
  8
Layer_1
 62
1
100
AcDbSpline
 70
8
 71
3
 72
8
 73
4
 74
0
 40
0
 40
0
 40
0
 40
0
 40
1
 40
1
 40
1
 40
1
 10
447.484895
 20
142.708904
 30
0.0
 10
448.373444
 20
142.708904
 30
0.0
 10
449.093788
 20
141.988580
 30
0.0
 10
449.093788
 20
141.100008
 30
0.0
  0
LINE
  5
117
100
AcDbEntity
  8
Layer_1
 62
1
100
AcDbLine
 10
449.093788
 20
141.100008
 30
0.0
 11
449.093788
 21
141.100008
 31
0.0
  0
SPLINE
  5
118
100
AcDbEntity
  8
Layer_1
 62
1
100
AcDbSpline
 70
8
 71
3
 72
8
 73
4
 74
0
 40
0
 40
0
 40
0
 40
0
 40
1
 40
1
 40
1
 40
1
 10
449.200919
 20
222.045141
 30
0.0
 10
449.200919
 20
221.156575
 30
0.0
 10
448.480575
 20
220.436251
 30
0.0
 10
447.592027
 20
220.436251
 30
0.0
  0
SPLINE
  5
119
100
AcDbEntity
  8
Layer_1
 62
1
100
AcDbSpline
 70
8
 71
3
 72
8
 73
4
 74
0
 40
0
 40
0
 40
0
 40
0
 40
1
 40
1
 40
1
 40
1
 10
447.592027
 20
220.436251
 30
0.0
 10
446.703450
 20
220.436251
 30
0.0
 10
445.983134
 20
221.156575
 30
0.0
 10
445.983134
 20
222.045141
 30
0.0
  0
SPLINE
  5
11a
100
AcDbEntity
  8
Layer_1
 62
1
100
AcDbSpline
 70
8
 71
3
 72
8
 73
4
 74
0
 40
0
 40
0
 40
0
 40
0
 40
1
 40
1
 40
1
 40
1
 10
445.983134
 20
222.045141
 30
0.0
 10
445.983134
 20
222.933709
 30
0.0
 10
446.703450
 20
223.654033
 30
0.0
 10
447.592027
 20
223.654033
 30
0.0
  0
SPLINE
  5
11b
100
AcDbEntity
  8
Layer_1
 62
1
100
AcDbSpline
 70
8
 71
3
 72
8
 73
4
 74
0
 40
0
 40
0
 40
0
 40
0
 40
1
 40
1
 40
1
 40
1
 10
447.592027
 20
223.654033
 30
0.0
 10
448.480575
 20
223.654033
 30
0.0
 10
449.200919
 20
222.933709
 30
0.0
 10
449.200919
 20
222.045141
 30
0.0
  0
LINE
  5
11c
100
AcDbEntity
  8
Layer_1
 62
1
100
AcDbLine
 10
449.200919
 20
222.045141
 30
0.0
 11
449.200919
 21
222.045141
 31
0.0
  0
LINE
  5
11d
100
AcDbEntity
  8
Layer_1
 62
7
100
AcDbLine
 10
164.885782
 20
227.173787
 30
0.0
 11
299.131990
 21
227.173787
 31
0.0
  0
SPLINE
  5
11e
100
AcDbEntity
  8
Layer_1
 62
7
100
AcDbSpline
 70
8
 71
3
 72
8
 73
4
 74
0
 40
0
 40
0
 40
0
 40
0
 40
1
 40
1
 40
1
 40
1
 10
299.131990
 20
227.173787
 30
0.0
 10
301.478611
 20
227.173787
 30
0.0
 10
303.367750
 20
225.284628
 30
0.0
 10
303.367750
 20
222.938010
 30
0.0
  0
LINE
  5
11f
100
AcDbEntity
  8
Layer_1
 62
7
100
AcDbLine
 10
303.367750
 20
222.938010
 30
0.0
 11
303.367750
 21
139.691785
 31
0.0
  0
SPLINE
  5
120
100
AcDbEntity
  8
Layer_1
 62
7
100
AcDbSpline
 70
8
 71
3
 72
8
 73
4
 74
0
 40
0
 40
0
 40
0
 40
0
 40
1
 40
1
 40
1
 40
1
 10
303.367750
 20
139.691785
 30
0.0
 10
303.367750
 20
137.345163
 30
0.0
 10
301.478611
 20
135.456010
 30
0.0
 10
299.131990
 20
135.456010
 30
0.0
  0
LINE
  5
121
100
AcDbEntity
  8
Layer_1
 62
7
100
AcDbLine
 10
299.131990
 20
135.456010
 30
0.0
 11
164.885782
 21
135.456010
 31
0.0
  0
SPLINE
  5
122
100
AcDbEntity
  8
Layer_1
 62
7
100
AcDbSpline
 70
8
 71
3
 72
8
 73
4
 74
0
 40
0
 40
0
 40
0
 40
0
 40
1
 40
1
 40
1
 40
1
 10
164.885782
 20
135.456010
 30
0.0
 10
162.539161
 20
135.456010
 30
0.0
 10
160.650005
 20
137.345163
 30
0.0
 10
160.650005
 20
139.691785
 30
0.0
  0
LINE
  5
123
100
AcDbEntity
  8
Layer_1
 62
7
100
AcDbLine
 10
160.650005
 20
139.691785
 30
0.0
 11
160.650005
 21
222.938010
 31
0.0
  0
SPLINE
  5
124
100
AcDbEntity
  8
Layer_1
 62
7
100
AcDbSpline
 70
8
 71
3
 72
8
 73
4
 74
0
 40
0
 40
0
 40
0
 40
0
 40
1
 40
1
 40
1
 40
1
 10
160.650005
 20
222.938010
 30
0.0
 10
160.650005
 20
225.284628
 30
0.0
 10
162.539161
 20
227.173787
 30
0.0
 10
164.885782
 20
227.173787
 30
0.0
  0
LINE
  5
125
100
AcDbEntity
  8
Layer_1
 62
7
100
AcDbLine
 10
164.885782
 20
227.173787
 30
0.0
 11
164.885782
 21
227.173787
 31
0.0
  0
SPLINE
  5
126
100
AcDbEntity
  8
Layer_1
 62
1
100
AcDbSpline
 70
8
 71
3
 72
8
 73
4
 74
0
 40
0
 40
0
 40
0
 40
0
 40
1
 40
1
 40
1
 40
1
 10
167.485554
 20
222.010018
 30
0.0
 10
167.485554
 20
221.121453
 30
0.0
 10
166.765230
 20
220.401126
 30
0.0
 10
165.876667
 20
220.401126
 30
0.0
  0
SPLINE
  5
127
100
AcDbEntity
  8
Layer_1
 62
1
100
AcDbSpline
 70
8
 71
3
 72
8
 73
4
 74
0
 40
0
 40
0
 40
0
 40
0
 40
1
 40
1
 40
1
 40
1
 10
165.876667
 20
220.401126
 30
0.0
 10
164.988102
 20
220.401126
 30
0.0
 10
164.267777
 20
221.121453
 30
0.0
 10
164.267777
 20
222.010018
 30
0.0
  0
SPLINE
  5
128
100
AcDbEntity
  8
Layer_1
 62
1
100
AcDbSpline
 70
8
 71
3
 72
8
 73
4
 74
0
 40
0
 40
0
 40
0
 40
0
 40
1
 40
1
 40
1
 40
1
 10
164.267777
 20
222.010018
 30
0.0
 10
164.267777
 20
222.898586
 30
0.0
 10
164.988102
 20
223.618908
 30
0.0
 10
165.876667
 20
223.618908
 30
0.0
  0
SPLINE
  5
129
100
AcDbEntity
  8
Layer_1
 62
1
100
AcDbSpline
 70
8
 71
3
 72
8
 73
4
 74
0
 40
0
 40
0
 40
0
 40
0
 40
1
 40
1
 40
1
 40
1
 10
165.876667
 20
223.618908
 30
0.0
 10
166.765230
 20
223.618908
 30
0.0
 10
167.485554
 20
222.898586
 30
0.0
 10
167.485554
 20
222.010018
 30
0.0
  0
LINE
  5
12a
100
AcDbEntity
  8
Layer_1
 62
1
100
AcDbLine
 10
167.485554
 20
222.010018
 30
0.0
 11
167.485554
 21
222.010018
 31
0.0
  0
SPLINE
  5
12b
100
AcDbEntity
  8
Layer_1
 62
1
100
AcDbSpline
 70
8
 71
3
 72
8
 73
4
 74
0
 40
0
 40
0
 40
0
 40
0
 40
1
 40
1
 40
1
 40
1
 10
168.126661
 20
141.064892
 30
0.0
 10
168.126661
 20
140.176326
 30
0.0
 10
167.406337
 20
139.456002
 30
0.0
 10
166.517774
 20
139.456002
 30
0.0
  0
SPLINE
  5
12c
100
AcDbEntity
  8
Layer_1
 62
1
100
AcDbSpline
 70
8
 71
3
 72
8
 73
4
 74
0
 40
0
 40
0
 40
0
 40
0
 40
1
 40
1
 40
1
 40
1
 10
166.517774
 20
139.456002
 30
0.0
 10
165.629209
 20
139.456002
 30
0.0
 10
164.908885
 20
140.176326
 30
0.0
 10
164.908885
 20
141.064892
 30
0.0
  0
SPLINE
  5
12d
100
AcDbEntity
  8
Layer_1
 62
1
100
AcDbSpline
 70
8
 71
3
 72
8
 73
4
 74
0
 40
0
 40
0
 40
0
 40
0
 40
1
 40
1
 40
1
 40
1
 10
164.908885
 20
141.064892
 30
0.0
 10
164.908885
 20
141.953460
 30
0.0
 10
165.629209
 20
142.673781
 30
0.0
 10
166.517774
 20
142.673781
 30
0.0
  0
SPLINE
  5
12e
100
AcDbEntity
  8
Layer_1
 62
1
100
AcDbSpline
 70
8
 71
3
 72
8
 73
4
 74
0
 40
0
 40
0
 40
0
 40
0
 40
1
 40
1
 40
1
 40
1
 10
166.517774
 20
142.673781
 30
0.0
 10
167.406337
 20
142.673781
 30
0.0
 10
168.126661
 20
141.953460
 30
0.0
 10
168.126661
 20
141.064892
 30
0.0
  0
LINE
  5
12f
100
AcDbEntity
  8
Layer_1
 62
1
100
AcDbLine
 10
168.126661
 20
141.064892
 30
0.0
 11
168.126661
 21
141.064892
 31
0.0
  0
SPLINE
  5
130
100
AcDbEntity
  8
Layer_1
 62
1
100
AcDbSpline
 70
8
 71
3
 72
8
 73
4
 74
0
 40
0
 40
0
 40
0
 40
0
 40
1
 40
1
 40
1
 40
1
 10
299.760640
 20
141.064886
 30
0.0
 10
299.760640
 20
140.176321
 30
0.0
 10
299.040324
 20
139.455996
 30
0.0
 10
298.151748
 20
139.455996
 30
0.0
  0
SPLINE
  5
131
100
AcDbEntity
  8
Layer_1
 62
1
100
AcDbSpline
 70
8
 71
3
 72
8
 73
4
 74
0
 40
0
 40
0
 40
0
 40
0
 40
1
 40
1
 40
1
 40
1
 10
298.151748
 20
139.455996
 30
0.0
 10
297.263199
 20
139.455996
 30
0.0
 10
296.542855
 20
140.176321
 30
0.0
 10
296.542855
 20
141.064886
 30
0.0
  0
SPLINE
  5
132
100
AcDbEntity
  8
Layer_1
 62
1
100
AcDbSpline
 70
8
 71
3
 72
8
 73
4
 74
0
 40
0
 40
0
 40
0
 40
0
 40
1
 40
1
 40
1
 40
1
 10
296.542855
 20
141.064886
 30
0.0
 10
296.542855
 20
141.953454
 30
0.0
 10
297.263199
 20
142.673776
 30
0.0
 10
298.151748
 20
142.673776
 30
0.0
  0
SPLINE
  5
133
100
AcDbEntity
  8
Layer_1
 62
1
100
AcDbSpline
 70
8
 71
3
 72
8
 73
4
 74
0
 40
0
 40
0
 40
0
 40
0
 40
1
 40
1
 40
1
 40
1
 10
298.151748
 20
142.673776
 30
0.0
 10
299.040324
 20
142.673776
 30
0.0
 10
299.760640
 20
141.953454
 30
0.0
 10
299.760640
 20
141.064886
 30
0.0
  0
LINE
  5
134
100
AcDbEntity
  8
Layer_1
 62
1
100
AcDbLine
 10
299.760640
 20
141.064886
 30
0.0
 11
299.760640
 21
141.064886
 31
0.0
  0
SPLINE
  5
135
100
AcDbEntity
  8
Layer_1
 62
1
100
AcDbSpline
 70
8
 71
3
 72
8
 73
4
 74
0
 40
0
 40
0
 40
0
 40
0
 40
1
 40
1
 40
1
 40
1
 10
299.867772
 20
222.010015
 30
0.0
 10
299.867772
 20
221.121450
 30
0.0
 10
299.147456
 20
220.401123
 30
0.0
 10
298.258879
 20
220.401123
 30
0.0
  0
SPLINE
  5
136
100
AcDbEntity
  8
Layer_1
 62
1
100
AcDbSpline
 70
8
 71
3
 72
8
 73
4
 74
0
 40
0
 40
0
 40
0
 40
0
 40
1
 40
1
 40
1
 40
1
 10
298.258879
 20
220.401123
 30
0.0
 10
297.370331
 20
220.401123
 30
0.0
 10
296.649987
 20
221.121450
 30
0.0
 10
296.649987
 20
222.010015
 30
0.0
  0
SPLINE
  5
137
100
AcDbEntity
  8
Layer_1
 62
1
100
AcDbSpline
 70
8
 71
3
 72
8
 73
4
 74
0
 40
0
 40
0
 40
0
 40
0
 40
1
 40
1
 40
1
 40
1
 10
296.649987
 20
222.010015
 30
0.0
 10
296.649987
 20
222.898581
 30
0.0
 10
297.370331
 20
223.618908
 30
0.0
 10
298.258879
 20
223.618908
 30
0.0
  0
SPLINE
  5
138
100
AcDbEntity
  8
Layer_1
 62
1
100
AcDbSpline
 70
8
 71
3
 72
8
 73
4
 74
0
 40
0
 40
0
 40
0
 40
0
 40
1
 40
1
 40
1
 40
1
 10
298.258879
 20
223.618908
 30
0.0
 10
299.147456
 20
223.618908
 30
0.0
 10
299.867772
 20
222.898581
 30
0.0
 10
299.867772
 20
222.010015
 30
0.0
  0
LINE
  5
139
100
AcDbEntity
  8
Layer_1
 62
1
100
AcDbLine
 10
299.867772
 20
222.010015
 30
0.0
 11
299.867772
 21
222.010015
 31
0.0
  0
SPLINE
  5
13a
100
AcDbEntity
  8
Layer_1
 62
1
100
AcDbSpline
 70
8
 71
3
 72
8
 73
4
 74
0
 40
0
 40
0
 40
0
 40
0
 40
1
 40
1
 40
1
 40
1
 10
289.242528
 20
211.439814
 30
0.0
 10
289.242528
 20
210.551251
 30
0.0
 10
288.522212
 20
209.830927
 30
0.0
 10
287.633664
 20
209.830927
 30
0.0
  0
SPLINE
  5
13b
100
AcDbEntity
  8
Layer_1
 62
1
100
AcDbSpline
 70
8
 71
3
 72
8
 73
4
 74
0
 40
0
 40
0
 40
0
 40
0
 40
1
 40
1
 40
1
 40
1
 10
287.633664
 20
209.830927
 30
0.0
 10
286.745087
 20
209.830927
 30
0.0
 10
286.024800
 20
210.551251
 30
0.0
 10
286.024800
 20
211.439814
 30
0.0
  0
SPLINE
  5
13c
100
AcDbEntity
  8
Layer_1
 62
1
100
AcDbSpline
 70
8
 71
3
 72
8
 73
4
 74
0
 40
0
 40
0
 40
0
 40
0
 40
1
 40
1
 40
1
 40
1
 10
286.024800
 20
211.439814
 30
0.0
 10
286.024800
 20
212.328379
 30
0.0
 10
286.745087
 20
213.048703
 30
0.0
 10
287.633664
 20
213.048703
 30
0.0
  0
SPLINE
  5
13d
100
AcDbEntity
  8
Layer_1
 62
1
100
AcDbSpline
 70
8
 71
3
 72
8
 73
4
 74
0
 40
0
 40
0
 40
0
 40
0
 40
1
 40
1
 40
1
 40
1
 10
287.633664
 20
213.048703
 30
0.0
 10
288.522212
 20
213.048703
 30
0.0
 10
289.242528
 20
212.328379
 30
0.0
 10
289.242528
 20
211.439814
 30
0.0
  0
LINE
  5
13e
100
AcDbEntity
  8
Layer_1
 62
1
100
AcDbLine
 10
289.242528
 20
211.439814
 30
0.0
 11
289.242528
 21
211.439814
 31
0.0
  0
SPLINE
  5
13f
100
AcDbEntity
  8
Layer_1
 62
1
100
AcDbSpline
 70
8
 71
3
 72
8
 73
4
 74
0
 40
0
 40
0
 40
0
 40
0
 40
1
 40
1
 40
1
 40
1
 10
289.294655
 20
158.438331
 30
0.0
 10
289.294655
 20
157.549763
 30
0.0
 10
288.574339
 20
156.829438
 30
0.0
 10
287.685762
 20
156.829438
 30
0.0
  0
SPLINE
  5
140
100
AcDbEntity
  8
Layer_1
 62
1
100
AcDbSpline
 70
8
 71
3
 72
8
 73
4
 74
0
 40
0
 40
0
 40
0
 40
0
 40
1
 40
1
 40
1
 40
1
 10
287.685762
 20
156.829438
 30
0.0
 10
286.797186
 20
156.829438
 30
0.0
 10
286.076898
 20
157.549763
 30
0.0
 10
286.076898
 20
158.438331
 30
0.0
  0
SPLINE
  5
141
100
AcDbEntity
  8
Layer_1
 62
1
100
AcDbSpline
 70
8
 71
3
 72
8
 73
4
 74
0
 40
0
 40
0
 40
0
 40
0
 40
1
 40
1
 40
1
 40
1
 10
286.076898
 20
158.438331
 30
0.0
 10
286.076898
 20
159.326896
 30
0.0
 10
286.797186
 20
160.047218
 30
0.0
 10
287.685762
 20
160.047218
 30
0.0
  0
SPLINE
  5
142
100
AcDbEntity
  8
Layer_1
 62
1
100
AcDbSpline
 70
8
 71
3
 72
8
 73
4
 74
0
 40
0
 40
0
 40
0
 40
0
 40
1
 40
1
 40
1
 40
1
 10
287.685762
 20
160.047218
 30
0.0
 10
288.574339
 20
160.047218
 30
0.0
 10
289.294655
 20
159.326896
 30
0.0
 10
289.294655
 20
158.438331
 30
0.0
  0
LINE
  5
143
100
AcDbEntity
  8
Layer_1
 62
1
100
AcDbLine
 10
289.294655
 20
158.438331
 30
0.0
 11
289.294655
 21
158.438331
 31
0.0
  0
SPLINE
  5
144
100
AcDbEntity
  8
Layer_1
 62
1
100
AcDbSpline
 70
8
 71
3
 72
8
 73
4
 74
0
 40
0
 40
0
 40
0
 40
0
 40
1
 40
1
 40
1
 40
1
 10
188.549269
 20
157.591732
 30
0.0
 10
188.549269
 20
156.703164
 30
0.0
 10
187.828944
 20
155.982842
 30
0.0
 10
186.940379
 20
155.982842
 30
0.0
  0
SPLINE
  5
145
100
AcDbEntity
  8
Layer_1
 62
1
100
AcDbSpline
 70
8
 71
3
 72
8
 73
4
 74
0
 40
0
 40
0
 40
0
 40
0
 40
1
 40
1
 40
1
 40
1
 10
186.940379
 20
155.982842
 30
0.0
 10
186.051814
 20
155.982842
 30
0.0
 10
185.331489
 20
156.703164
 30
0.0
 10
185.331489
 20
157.591732
 30
0.0
  0
SPLINE
  5
146
100
AcDbEntity
  8
Layer_1
 62
1
100
AcDbSpline
 70
8
 71
3
 72
8
 73
4
 74
0
 40
0
 40
0
 40
0
 40
0
 40
1
 40
1
 40
1
 40
1
 10
185.331489
 20
157.591732
 30
0.0
 10
185.331489
 20
158.480292
 30
0.0
 10
186.051814
 20
159.200619
 30
0.0
 10
186.940379
 20
159.200619
 30
0.0
  0
SPLINE
  5
147
100
AcDbEntity
  8
Layer_1
 62
1
100
AcDbSpline
 70
8
 71
3
 72
8
 73
4
 74
0
 40
0
 40
0
 40
0
 40
0
 40
1
 40
1
 40
1
 40
1
 10
186.940379
 20
159.200619
 30
0.0
 10
187.828944
 20
159.200619
 30
0.0
 10
188.549269
 20
158.480292
 30
0.0
 10
188.549269
 20
157.591732
 30
0.0
  0
LINE
  5
148
100
AcDbEntity
  8
Layer_1
 62
1
100
AcDbLine
 10
188.549269
 20
157.591732
 30
0.0
 11
188.549269
 21
157.591732
 31
0.0
  0
SPLINE
  5
149
100
AcDbEntity
  8
Layer_1
 62
1
100
AcDbSpline
 70
8
 71
3
 72
8
 73
4
 74
0
 40
0
 40
0
 40
0
 40
0
 40
1
 40
1
 40
1
 40
1
 10
188.549269
 20
205.283531
 30
0.0
 10
188.549269
 20
204.394963
 30
0.0
 10
187.828944
 20
203.674636
 30
0.0
 10
186.940376
 20
203.674636
 30
0.0
  0
SPLINE
  5
14a
100
AcDbEntity
  8
Layer_1
 62
1
100
AcDbSpline
 70
8
 71
3
 72
8
 73
4
 74
0
 40
0
 40
0
 40
0
 40
0
 40
1
 40
1
 40
1
 40
1
 10
186.940376
 20
203.674636
 30
0.0
 10
186.051814
 20
203.674636
 30
0.0
 10
185.331489
 20
204.394963
 30
0.0
 10
185.331489
 20
205.283531
 30
0.0
  0
SPLINE
  5
14b
100
AcDbEntity
  8
Layer_1
 62
1
100
AcDbSpline
 70
8
 71
3
 72
8
 73
4
 74
0
 40
0
 40
0
 40
0
 40
0
 40
1
 40
1
 40
1
 40
1
 10
185.331489
 20
205.283531
 30
0.0
 10
185.331489
 20
206.172091
 30
0.0
 10
186.051814
 20
206.892418
 30
0.0
 10
186.940376
 20
206.892418
 30
0.0
  0
SPLINE
  5
14c
100
AcDbEntity
  8
Layer_1
 62
1
100
AcDbSpline
 70
8
 71
3
 72
8
 73
4
 74
0
 40
0
 40
0
 40
0
 40
0
 40
1
 40
1
 40
1
 40
1
 10
186.940376
 20
206.892418
 30
0.0
 10
187.828944
 20
206.892418
 30
0.0
 10
188.549269
 20
206.172091
 30
0.0
 10
188.549269
 20
205.283531
 30
0.0
  0
LINE
  5
14d
100
AcDbEntity
  8
Layer_1
 62
1
100
AcDbLine
 10
188.549269
 20
205.283531
 30
0.0
 11
188.549269
 21
205.283531
 31
0.0
  0
ENDSEC
  0
SECTION
  2
OBJECTS
  0
DICTIONARY
  5
C
330
0
100
AcDbDictionary
  3
ACAD_GROUP
350
D
  3
ACAD_MLINESTYLE
350
17
  0
DICTIONARY
  5
D
330
C
100
AcDbDictionary
  0
DICTIONARY
  5
1A
330
C
100
AcDbDictionary
  0
DICTIONARY
  5
17
330
C
100
AcDbDictionary
  3
STANDARD
350
18
  0
DICTIONARY
  5
19
330
C
100
AcDbDictionary
  0
ENDSEC
  0
EOF
